# xmcd
#
# Track frame offsets: 
#        150
#        15605
#        30650
#        56585
#        67602
#        84585
#        102572
#        124950
#        140010
#        152475
#        171525
#        187865
#        211575
#        222165
#        248650
#        267447
#        290985
#        322505
#
# Disc length: 4500 seconds
#
# Revision: 0
# Processed by: cddbd v1.5.1PL0 Copyright (c) Steve Scherf et al.
# Submitted via: ExactAudioCopy v0.95a3
#
DISCID=fd119212
DTITLE=Цветы - Мы Желаем Счастья Вам
DYEAR=1995
DGENRE=Retro
TTITLE0=Мы Желаем Счаться Вам
TTITLE1=Гимн Солнцу
TTITLE2=После Дождя
TTITLE3=Где Живёт Ветер
TTITLE4=Ты Только Слушай
TTITLE5=Богатырская Сила
TTITLE6=Скажи Мне Да
TTITLE7=Посвящение "Битлз"
TTITLE8=Утро И Вечер
TTITLE9=Музыкант
TTITLE10=Юрмала
TTITLE11=Прозрачная Стена
TTITLE12=Наша Тайна
TTITLE13=Всё Как Прежде
TTITLE14=Карусель
TTITLE15=Я Найду
TTITLE16=Парафраза На Темы Песен Мишеля Леграна
TTITLE17=Мы Желаем Счастья Вам
EXTD=
EXTT0=
EXTT1=
EXTT2=
EXTT3=
EXTT4=
EXTT5=
EXTT6=
EXTT7=
EXTT8=
EXTT9=
EXTT10=
EXTT11=
EXTT12=
EXTT13=
EXTT14=
EXTT15=
EXTT16=
EXTT17=
PLAYORDER=
